<svg xmlns="http://www.w3.org/2000/svg" width="200" height="40" viewBox="0,0,200,40"><path d="M7 25 C112 36,117 24,197 15" stroke="#999" fill="none"/><path fill="#111" d="M83.52 35.07L83.48 35.03L81.39 35.23L81.54 35.37Q81.04 35.33 80.07 35.39L80.04 35.35L79.95 35.27Q79.07 35.42 78.57 35.42L78.65 35.49L78.53 35.37Q76.90 35.38 75.87 34.54L75.83 34.50L75.87 34.54Q76.69 33.46 78.33 31.32L78.41 31.41L78.44 31.44Q79.57 32.87 81.78 32.64L81.77 32.63L81.81 32.68Q82.82 32.66 83.47 32.01L83.38 31.92L83.47 32.01Q84.04 31.29 83.93 30.41L83.91 30.40L83.82 30.31Q83.71 25.70 83.79 21.14L83.89 21.24L83.94 21.29Q83.88 16.59 84.41 11.98L84.34 11.91L84.53 12.10Q86.42 11.85 88.55 10.82L88.56 10.84L88.60 10.87Q86.67 17.55 86.67 24.78L86.62 24.73L86.70 24.81Q86.74 28.39 87.20 31.90L87.16 31.85L87.02 31.72Q87.24 32.20 87.24 32.55L87.13 32.44L87.18 32.49Q87.26 33.14 87.03 33.67L86.94 33.58L86.90 33.54Q86.36 34.83 83.55 35.10ZM88.58 38.04L88.43 37.88L88.90 38.01L89.07 37.77L89.47 37.79L89.42 37.73Q89.68 37.43 89.76 37.31L89.82 37.37L89.82 37.37Q89.95 36.14 89.69 35.15L89.66 35.12L89.69 35.15Q88.30 29.30 88.56 22.95L88.64 23.02L88.63 23.01Q88.75 16.78 90.54 10.88L90.59 10.93L90.69 11.02Q89.74 11.60 88.48 12.32L88.45 12.29L88.61 12.45Q88.70 11.58 89.11 10.06L89.04 9.99L89.10 10.04Q86.62 11.41 83.96 11.71L84.03 11.78L84.02 11.78Q83.67 16.19 83.59 21.14L83.61 21.15L83.61 21.15Q83.43 26.95 83.50 30.37L83.43 30.30L83.45 30.32Q83.51 32.09 81.75 32.24L81.73 32.21L81.72 32.20Q80.18 32.50 78.51 30.86L78.52 30.87L78.41 30.76Q76.32 33.24 75.37 34.80L75.48 34.91L75.42 34.86Q76.15 35.58 77.18 35.81L77.14 35.77L77.02 35.65Q77.10 35.96 76.83 36.19L76.67 36.03L76.78 36.14Q78.20 37.06 80.18 37.32L80.15 37.30L80.27 37.42Q80.54 37.35 83.83 37.65L83.81 37.62L83.88 37.69Q87.22 38.05 88.59 38.05Z"/><path d="M13 9 C88 24,119 5,195 18" stroke="#666" fill="none"/><path fill="#111" d="M26.96 35.08L26.93 35.05L24.95 35.36L24.84 35.25Q24.46 35.32 23.49 35.38L23.57 35.46L23.51 35.40Q22.51 35.43 22.02 35.43L22.08 35.49L22.03 35.44Q20.29 35.34 19.26 34.50L19.30 34.54L19.29 34.53Q20.08 33.41 21.71 31.28L21.70 31.27L21.74 31.31Q23.07 32.94 25.27 32.71L25.27 32.71L25.20 32.64Q26.16 32.57 26.81 31.92L26.74 31.86L26.76 31.87Q27.41 31.23 27.30 30.36L27.30 30.36L27.32 30.38Q27.21 25.78 27.29 21.21L27.38 21.30L27.21 21.13Q27.43 16.70 27.96 12.10L27.85 11.99L27.78 11.92Q29.83 11.84 31.96 10.81L31.97 10.81L31.85 10.69Q30.01 17.46 30.01 24.69L30.03 24.72L30.16 24.85Q30.12 28.35 30.58 31.85L30.51 31.78L30.47 31.73Q30.54 32.07 30.54 32.41L30.52 32.39L30.64 32.52Q30.60 33.05 30.37 33.58L30.46 33.67L30.46 33.67Q29.85 34.89 27.03 35.15ZM31.99 38.01L31.91 37.93L32.20 37.89L32.46 37.72L32.86 37.75L32.73 37.61Q33.12 37.44 33.20 37.32L33.16 37.28L33.23 37.36Q33.44 36.19 33.17 35.20L33.15 35.18L33.14 35.17Q31.86 29.44 32.13 23.08L32.10 23.05L32.01 22.96Q32.34 16.93 34.13 11.03L34.08 10.99L34.03 10.94Q33.25 11.68 32.00 12.40L31.94 12.35L31.92 12.33Q32.19 11.65 32.61 10.13L32.47 9.98L32.49 10.00Q29.96 11.32 27.30 11.62L27.42 11.74L27.38 11.71Q26.96 16.05 26.89 21.00L26.89 21.01L26.94 21.05Q26.85 26.94 26.93 30.37L27.04 30.48L26.89 30.33Q27.02 32.17 25.27 32.32L25.18 32.24L25.33 32.39Q23.43 32.31 21.76 30.68L21.79 30.71L21.89 30.81Q19.83 33.32 18.88 34.88L18.84 34.85L18.86 34.87Q19.53 35.53 20.56 35.76L20.46 35.66L20.60 35.81Q20.47 35.91 20.21 36.13L20.21 36.13L20.09 36.01Q21.69 37.12 23.67 37.39L23.59 37.31L23.62 37.34Q24.05 37.42 27.34 37.73L27.24 37.62L27.27 37.66Q30.63 38.02 32.00 38.02Z"/><path fill="#222" d="M163.98 14.28L164.06 14.36L164.04 14.35Q164.96 18.65 165.11 22.23L165.01 22.13L165.11 22.23Q166.10 22.19 167.16 22.19L167.22 22.25L169.35 22.16L169.39 22.21Q170.54 22.29 171.42 20.88L171.33 20.79L171.27 20.74Q172.15 19.71 172.27 18.53L172.10 18.37L172.18 18.45Q172.60 15.48 168.37 14.98L168.39 15.00L168.34 14.95Q166.69 14.94 164.06 14.37ZM165.16 25.02L165.17 25.03L165.00 24.86Q165.11 31.25 163.97 35.67L163.93 35.63L163.83 35.53Q162.45 36.01 160.12 37.08L160.20 37.15L160.12 37.07Q162.49 30.42 162.22 23.15L162.10 23.03L162.11 23.04Q161.98 15.83 159.20 9.39L159.17 9.36L159.07 9.27Q163.20 12.02 169.44 12.02L169.58 12.16L169.47 12.05Q175.59 12.11 175.74 15.58L175.77 15.61L175.65 15.48Q175.72 17.92 174.73 20.59L174.79 20.64L174.89 20.74Q174.31 21.68 173.36 22.90L173.42 22.97L173.48 23.02Q172.04 24.51 169.49 24.78L169.55 24.84L169.63 24.93Q167.41 24.98 165.16 25.02ZM171.28 27.26L171.27 27.25L171.29 27.27Q175.29 27.34 176.54 22.55L176.61 22.62L176.66 22.66Q177.67 19.07 177.52 17.05L177.37 16.90L177.39 16.92Q177.28 15.40 176.51 14.41L176.63 14.52L176.51 14.40Q176.12 14.02 175.63 13.79L175.75 13.91L175.73 13.89Q175.67 13.68 175.07 12.92L175.09 12.95L175.19 13.05Q173.44 11.53 169.48 11.53L169.50 11.54L169.65 11.70Q162.67 11.60 158.44 8.44L158.56 8.56L158.54 8.54Q161.61 15.53 161.87 22.99L161.93 23.04L161.85 22.97Q162.16 30.66 159.49 37.74L159.58 37.83L159.52 37.77Q160.51 37.04 161.50 36.66L161.66 36.83L161.11 37.80L161.29 37.98Q161.09 38.54 160.82 39.11L160.82 39.10L160.68 38.97Q163.16 37.98 166.06 37.45L166.17 37.56L166.07 37.46Q166.94 31.98 167.02 27.26L166.98 27.23L167.09 27.33Q168.08 27.14 169.07 27.14L169.18 27.25L169.08 27.15Q170.33 27.06 171.13 27.10ZM170.36 17.35L170.34 17.33L170.18 17.17Q170.78 17.28 171.77 17.51L171.82 17.55L171.71 17.45Q171.89 17.74 171.92 18.04L172.00 18.12L171.94 18.05Q171.87 18.22 171.80 18.49L171.96 18.65L171.80 18.49Q171.70 19.72 170.98 20.60L171.08 20.70L171.09 20.71Q170.39 21.65 169.37 21.84L169.41 21.89L169.34 21.81Q168.75 21.95 167.11 21.95L166.96 21.80L166.97 21.81Q166.92 19.51 166.69 17.15L166.70 17.16L168.45 17.24L168.56 17.34Q169.35 17.30 170.23 17.22Z"/><path fill="#444" d="M64.22 17.98L64.22 17.98L64.25 18.01Q62.44 20.73 59.77 26.36L59.90 26.49L57.85 30.68L57.91 30.75Q56.96 32.57 55.63 34.82L55.56 34.75L55.53 34.72Q55.98 34.72 54.31 34.75L54.32 34.76L54.49 34.94Q54.38 34.82 53.12 34.82L53.11 34.81L53.07 34.77Q52.33 33.27 49.40 26.12L49.54 26.25L49.43 26.15Q47.42 20.94 45.32 17.93L45.30 17.90L45.31 17.91Q45.98 20.90 45.98 24.06L46.06 24.14L46.07 24.15Q45.89 30.48 42.92 36.04L42.95 36.07L42.94 36.06Q41.76 36.56 39.40 37.28L39.38 37.26L39.23 37.11Q43.12 31.63 43.12 24.40L43.06 24.35L42.95 24.23Q43.11 15.44 37.70 8.48L37.69 8.47L37.59 8.37Q39.28 9.14 41.64 9.82L41.69 9.87L41.62 9.80Q48.62 16.50 54.71 29.82L54.77 29.88L54.75 29.87Q58.28 22.89 60.49 19.38L60.50 19.40L60.41 19.31Q63.96 13.50 67.92 10.03L67.95 10.06L68.01 10.12Q69.19 9.81 71.55 9.05L71.58 9.09L71.59 9.09Q66.59 15.71 66.59 24.31L66.69 24.41L66.71 24.43Q66.58 30.96 70.01 36.48L70.07 36.55L70.11 36.58Q68.80 36.31 66.06 35.70L65.95 35.58L65.90 35.54Q63.66 30.86 63.66 24.89L63.58 24.80L63.70 24.92Q63.68 21.47 64.36 18.12ZM65.79 36.00L65.87 36.08L65.74 35.95Q66.55 36.19 68.00 36.45L67.95 36.41L68.00 36.45Q68.35 37.10 69.30 38.59L69.26 38.55L69.37 38.66Q71.40 38.98 74.87 40.20L74.97 40.31L74.93 40.26Q68.62 33.87 68.62 24.05L68.62 24.06L68.62 24.05Q68.61 16.32 72.99 10.19L73.04 10.24L70.81 10.90L70.80 10.89Q71.93 9.47 72.57 8.59L72.42 8.44L72.42 8.43Q70.59 9.12 67.96 9.65L68.07 9.76L67.99 9.68Q61.17 15.72 55.11 28.32L55.14 28.35L55.09 28.31Q49.97 17.39 45.02 12.14L44.95 12.07L45.01 12.13Q44.69 12.12 44.12 12.01L44.10 11.98L42.81 10.61L42.79 10.59Q42.23 9.96 41.54 9.35L41.57 9.37L41.54 9.34Q38.48 8.34 36.69 7.62L36.84 7.77L36.68 7.61Q42.84 14.98 42.84 24.39L42.68 24.23L42.70 24.25Q42.84 32.00 38.69 37.86L38.59 37.77L38.51 37.69Q39.35 37.61 40.64 37.19L40.56 37.11L40.54 37.09Q40.49 37.42 39.09 39.52L39.00 39.43L39.02 39.45Q40.94 39.09 44.44 38.33L44.29 38.17L44.33 38.21Q48.10 31.21 47.91 23.44L47.79 23.33L47.92 23.45Q49.47 27.48 52.94 35.36L52.78 35.21L52.95 35.38Q53.12 35.24 53.34 35.24L53.29 35.18L53.88 35.23L53.82 35.18Q54.30 35.89 55.10 37.18L55.13 37.22L55.04 37.12Q56.81 37.25 56.81 37.25L56.79 37.24L56.81 37.26Q57.73 37.15 58.38 37.22L58.32 37.17L58.36 37.21Q60.03 33.28 63.38 25.29L63.31 25.22L63.29 25.20Q63.20 30.66 65.79 35.99Z"/><path fill="#222" d="M113.38 34.84L113.34 34.80L111.35 34.75L111.45 34.85Q110.47 34.82 109.52 34.94L109.57 34.98L109.61 35.03Q110.17 28.81 110.17 24.81L110.06 24.70L110.06 24.71Q106.22 18.16 98.57 9.48L98.42 9.33L98.54 9.45Q100.22 10.33 103.57 11.13L103.63 11.20L103.72 11.28Q108.75 16.84 111.76 22.06L111.73 22.03L111.77 22.08Q114.69 16.43 119.07 11.40L119.07 11.41L119.15 11.49Q121.43 10.95 123.94 10.15L124.10 10.30L124.02 10.23Q118.01 16.36 113.13 24.77L113.17 24.80L113.06 24.70Q112.99 31.67 113.29 34.75ZM122.51 12.29L125.21 9.44L125.26 9.48Q122.11 10.60 118.99 11.06L119.07 11.14L118.92 10.98Q114.72 15.73 111.90 20.84L111.86 20.79L111.88 20.81Q109.76 17.17 106.56 13.29L106.70 13.43L106.69 13.42Q106.33 13.32 105.83 13.24L105.86 13.27L105.94 13.35Q105.12 12.42 103.60 10.74L103.74 10.89L103.66 10.80Q100.18 9.95 97.22 8.39L97.27 8.45L97.31 8.49Q105.09 17.02 109.84 24.94L109.71 24.81L109.72 24.82Q109.60 31.13 108.99 35.28L108.97 35.27L109.03 35.33Q109.84 35.37 111.29 35.25L111.35 35.32L111.19 36.19L111.35 36.34Q111.16 36.62 111.09 37.15L111.08 37.15L111.15 37.21Q114.65 37.17 116.40 37.36L116.40 37.36L116.54 37.50Q115.21 32.74 115.09 26.76L115.14 26.81L115.11 26.78Q119.49 18.33 126.03 10.98L126.11 11.06L122.53 12.31Z"/><path fill="#333" d="M135.32 35.44L135.20 35.31L135.15 35.27Q133.88 35.49 132.32 35.07L132.31 35.05L132.23 34.98Q130.94 33.99 130.78 32.35L130.81 32.38L130.91 32.48Q130.79 32.20 130.98 29.57L131.06 29.66L131.02 29.62Q131.99 29.36 134.00 28.98L134.01 28.99L133.88 29.81L133.91 29.84Q133.63 31.58 135.04 32.15L135.12 32.23L134.96 32.07Q135.88 32.53 137.97 32.53L138.02 32.58L137.91 32.47Q139.61 32.42 139.80 32.34L139.70 32.24L139.64 32.18Q140.71 32.19 141.44 31.70L141.41 31.67L141.41 31.67Q142.82 30.71 142.63 28.62L142.66 28.65L142.66 28.65Q142.30 26.05 140.57 24.49L140.73 24.65L140.59 24.51Q138.85 22.94 136.38 22.94L136.37 22.93L136.51 22.84L136.34 22.68Q136.73 22.65 137.61 22.57L137.71 22.68L137.75 22.72Q139.52 22.47 140.89 21.23L140.96 21.30L140.94 21.28Q142.26 20.00 142.42 18.13L142.58 18.30L142.47 18.19Q142.57 17.86 142.57 17.52L142.56 17.51L142.62 17.58Q142.48 15.91 141.11 15.00L141.26 15.14L141.19 15.08Q140.04 14.35 138.45 14.47L138.33 14.35L138.32 14.34Q137.13 14.30 135.92 14.72L135.96 14.76L135.97 14.77Q134.41 15.19 134.11 16.33L134.09 16.31L134.17 16.40Q133.90 17.08 133.98 17.84L134.02 17.88L133.94 17.81Q132.89 17.55 130.83 16.82L130.93 16.92L130.90 16.89Q130.71 15.26 130.75 14.42L130.73 14.40L130.80 14.48Q130.81 12.85 131.88 12.16L131.95 12.24L131.99 12.27Q133.35 11.62 134.95 11.62L134.83 11.50L134.91 11.58Q138.08 11.55 141.24 11.82L141.25 11.83L141.24 11.82Q146.28 12.21 145.97 15.98L145.92 15.92L145.92 15.93Q145.87 17.44 145.37 19.00L145.45 19.07L145.41 19.04Q144.41 22.03 142.05 22.95L142.18 23.08L142.07 22.97Q144.69 23.49 145.29 26.84L145.35 26.89L145.40 26.94Q145.63 28.09 145.71 30.10L145.67 30.06L145.62 30.02Q145.88 34.58 141.27 35.03L141.22 34.98L141.21 34.97Q140.52 35.08 135.22 35.34ZM140.53 37.68L140.35 37.50L140.45 37.60Q141.10 37.68 143.95 37.75L143.94 37.74L143.84 37.64Q145.59 37.71 147.22 37.06L147.24 37.08L147.33 37.17Q148.57 36.27 148.38 34.52L148.19 34.34L148.21 34.35Q148.10 33.03 147.79 31.28L147.83 31.31L147.95 31.43Q147.20 26.91 145.26 25.28L145.21 25.23L145.04 24.86L144.94 24.73L144.97 24.76Q146.70 23.29 147.46 18.92L147.44 18.89L147.44 18.89Q147.51 18.47 147.63 17.52L147.54 17.43L147.72 17.61Q147.71 16.76 147.63 16.08L147.57 16.02L147.58 16.03Q147.41 14.34 146.12 13.65L146.13 13.66L146.11 13.72L146.21 13.82Q145.85 12.77 144.71 12.24L144.70 12.23L144.63 12.16Q143.08 11.45 137.94 11.14L137.92 11.12L138.07 11.28Q136.37 11.17 134.77 11.17L134.77 11.17L134.65 11.05Q133.09 11.09 131.56 11.73L131.54 11.71L131.64 11.81Q130.39 12.54 130.39 14.29L130.37 14.27L130.29 14.19Q130.46 13.94 130.72 17.29L130.66 17.22L130.62 17.18Q130.93 17.26 132.56 17.87L132.65 17.96L132.60 17.91Q132.62 18.47 132.59 18.96L132.55 18.92L132.47 18.84Q132.54 19.41 132.58 19.94L132.50 19.87L132.61 19.97Q134.44 20.40 136.46 20.51L136.35 20.40L136.34 20.39Q136.36 18.47 137.46 17.63L137.52 17.69L137.42 17.60Q138.25 16.93 140.26 16.70L140.30 16.74L140.38 16.82Q141.49 16.79 142.06 16.98L141.93 16.85L141.96 16.88Q142.09 17.08 142.13 17.19L142.03 17.09L142.09 17.35L142.18 17.90L142.11 17.83Q142.11 18.02 142.08 18.17L142.11 18.21L142.23 18.33Q142.03 19.92 140.51 21.10L140.58 21.17L140.59 21.17Q139.60 22.02 137.58 22.21L137.57 22.19L137.70 22.32Q136.87 22.37 136.00 22.37L136.00 22.38L136.03 22.41Q136.00 22.68 136.16 23.37L136.17 23.38L136.12 23.34Q138.06 23.52 139.50 24.24L139.50 24.24L139.22 24.07L137.72 24.33L137.75 24.35Q137.78 24.69 137.89 25.30L137.84 25.24L137.96 25.37Q139.99 25.18 141.70 26.52L141.75 26.57L141.80 26.61Q141.94 26.90 142.24 28.54L142.31 28.61L142.30 28.60Q142.52 31.56 139.59 31.98L139.58 31.97L139.51 31.90Q137.43 32.18 136.86 32.14L136.88 32.17L136.82 32.11Q136.33 31.95 135.80 31.88L135.94 32.03L135.79 31.41L136.03 31.08L135.96 30.60L135.99 30.28L135.97 30.27Q135.05 30.37 134.25 30.56L134.32 30.63L134.30 30.61Q134.17 30.29 134.17 30.10L134.18 30.11L134.32 30.25Q134.26 29.96 134.26 29.74L134.25 29.73L134.34 29.82Q134.29 29.31 134.45 28.59L134.54 28.68L134.51 28.65Q132.64 28.87 130.77 29.22L130.72 29.17L130.70 29.14Q130.70 29.64 130.59 30.76L130.75 30.92L130.57 30.75Q130.46 31.88 130.46 32.49L130.61 32.63L130.45 32.48Q130.65 34.65 132.02 35.41L131.96 35.35L131.91 35.30Q133.46 37.65 138.18 37.46L138.20 37.48L138.13 37.42Q138.88 37.40 140.40 37.55Z"/></svg>