<svg xmlns="http://www.w3.org/2000/svg" width="200" height="40" viewBox="0,0,200,40"><path d="M18 6 C106 37,79 19,199 28" stroke="#777" fill="none"/><path d="M17 22 C87 38,88 17,191 34" stroke="#444" fill="none"/><path fill="#333" d="M27.69 15.21L27.56 15.08L27.58 15.11Q23.26 15.08 19.56 14.09L19.59 14.13L19.52 14.05Q21.03 18.61 21.22 23.44L21.32 23.54L21.22 23.44Q21.56 28.39 20.34 32.99L20.31 32.96L20.17 32.82Q23.07 32.29 26.57 32.14L26.62 32.19L26.49 32.06Q30.53 31.99 32.31 29.55L32.30 29.54L32.36 29.59Q33.87 27.52 34.06 23.41L33.91 23.27L33.92 23.27Q34.09 21.62 33.64 19.91L33.55 19.82L33.63 19.90Q32.29 15.10 27.57 15.10ZM15.71 37.16L15.60 37.04L15.59 37.04Q18.50 31.38 18.50 24.68L18.56 24.74L18.58 24.76Q18.51 16.17 14.21 9.16L14.27 9.22L14.26 9.21Q19.58 11.94 27.84 12.13L27.85 12.14L27.76 12.06Q36.60 12.21 36.94 19.37L36.97 19.40L36.96 19.38Q37.15 22.16 37.11 23.61L37.08 23.58L37.12 23.62Q36.95 28.21 36.12 30.38L36.21 30.47L36.22 30.49Q35.83 31.62 35.07 32.46L35.02 32.41L35.05 32.43Q33.71 33.99 31.09 34.49L30.90 34.30L30.95 34.35Q29.35 34.62 26.35 34.85L26.52 35.02L26.39 34.90Q20.30 35.39 15.69 37.14ZM33.54 36.94L33.52 36.92L33.66 37.06Q36.46 36.77 38.09 35.29L38.03 35.23L38.07 35.26Q39.16 33.39 39.12 30.65L39.16 30.68L39.15 30.68Q39.17 29.32 39.02 25.82L39.01 25.82L38.55 21.17L38.59 21.21Q38.39 18.92 37.44 16.82L37.52 16.90L37.43 16.81Q37.00 15.96 36.32 15.32L36.38 15.38L36.33 15.18L36.34 15.19Q34.51 12.10 30.09 11.72L30.22 11.85L30.10 11.73Q27.43 11.61 20.43 10.89L20.47 10.92L20.38 10.84Q17.25 10.53 13.56 8.51L13.61 8.56L13.54 8.49Q18.29 15.79 18.29 24.54L18.36 24.62L18.28 24.54Q18.34 31.60 14.99 37.77L14.98 37.76L14.96 37.74Q15.75 37.58 17.09 37.08L16.96 36.96L17.08 37.07Q16.68 37.86 15.81 39.35L15.77 39.31L15.75 39.29Q18.78 38.21 22.13 37.72L22.21 37.80L22.13 37.71Q24.27 37.45 27.92 37.34L27.87 37.28L27.85 37.27Q31.77 37.19 33.60 37.00ZM33.61 23.35L33.60 23.34L33.70 23.44Q33.21 31.32 26.51 31.70L26.56 31.75L26.56 31.75Q24.70 31.95 22.64 32.21L22.60 32.17L22.56 32.13Q23.25 28.25 23.25 24.59L23.30 24.64L23.29 24.64Q23.35 21.01 22.63 17.16L22.47 17.00L22.56 17.10Q24.84 17.47 29.52 17.47L29.45 17.40L29.44 17.39Q30.87 17.29 32.50 18.24L32.46 18.20L32.59 18.33Q33.76 20.49 33.61 23.34Z"/><path fill="#333" d="M54.67 25.53L54.57 25.42L54.65 25.50Q51.06 31.73 47.63 35.69L47.66 35.72L47.57 35.63Q45.83 36.18 43.40 37.05L43.40 37.05L43.39 37.04Q48.33 31.48 53.09 23.07L53.05 23.02L52.98 22.96Q48.47 16.09 42.49 9.69L42.51 9.70L42.39 9.59Q45.35 10.84 47.64 11.33L47.68 11.38L47.64 11.34Q52.23 16.50 54.67 20.46L54.81 20.60L54.81 20.59Q57.21 16.07 61.13 11.65L61.21 11.73L61.10 11.62Q62.79 11.41 65.99 10.65L66.04 10.70L65.98 10.64Q59.87 17.06 56.41 23.00L56.48 23.07L56.50 23.09Q61.53 31.62 65.91 36.19L65.94 36.22L65.93 36.21Q63.30 35.37 61.21 35.14L61.36 35.29L61.25 35.19Q58.46 32.20 54.53 25.39ZM61.28 35.64L61.16 35.52L61.15 35.50Q61.47 35.56 61.93 35.68L62.03 35.78L62.02 35.76Q62.69 36.39 64.21 37.99L64.38 38.16L64.34 38.12Q67.67 38.90 70.71 40.27L70.76 40.32L70.75 40.31Q63.45 33.54 58.35 24.79L58.54 24.97L58.52 24.95Q62.17 18.22 68.07 11.36L68.03 11.32L68.12 11.41Q66.73 12.11 64.56 12.64L64.53 12.61L64.59 12.67Q65.33 11.63 67.09 9.84L67.15 9.91L67.21 9.96Q64.76 10.79 61.07 11.36L60.99 11.28L61.05 11.34Q57.65 15.18 55.06 19.48L55.11 19.53L55.03 19.45Q54.03 17.76 52.85 16.28L52.93 16.36L50.67 13.45L50.16 13.32L50.31 13.47Q50.04 13.35 49.81 13.28L49.95 13.42L49.78 13.25Q49.14 12.46 47.66 10.90L47.71 10.94L47.73 10.96Q43.98 10.15 41.39 8.78L41.36 8.75L41.25 8.64Q48.10 16.02 52.67 23.06L52.69 23.08L52.67 23.06Q48.04 31.11 42.29 37.69L42.44 37.85L42.30 37.71Q43.64 37.07 45.77 36.50L45.90 36.63L44.60 38.06L44.47 37.94Q44.48 37.94 43.14 39.27L43.23 39.36L43.23 39.36Q46.29 38.35 49.45 37.85L49.38 37.78L49.40 37.80Q53.33 33.21 55.92 28.45L56.02 28.55L55.89 28.41Q58.59 32.80 61.30 35.65Z"/><path fill="#333" d="M81.61 35.16L81.60 35.14L81.68 35.23Q78.11 35.24 76.48 34.71L76.64 34.87L76.60 34.83Q74.64 34.20 74.33 30.82L74.29 30.77L75.70 29.67L75.83 29.80Q76.40 29.11 77.16 28.61L77.24 28.69L77.29 28.75Q77.04 30.66 78.64 31.88L78.52 31.76L78.59 31.83Q79.94 32.92 82.08 32.73L82.06 32.71L81.94 32.60Q86.44 32.30 86.25 28.76L86.19 28.70L86.13 28.64Q85.98 26.39 83.35 25.17L83.29 25.12L83.43 25.26Q80.47 24.08 78.11 22.86L78.27 23.03L78.16 22.92Q75.67 21.65 74.68 16.96L74.72 17.00L74.58 16.86Q74.59 16.53 74.48 15.77L74.44 15.73L74.43 15.72Q74.30 14.91 74.38 14.34L74.42 14.38L74.48 14.44Q74.55 12.76 75.81 12.30L75.84 12.33L75.89 12.38Q78.23 11.45 82.23 11.64L82.21 11.62L82.21 11.62Q84.12 11.82 84.92 11.90L84.75 11.73L84.86 11.84Q86.26 11.94 87.33 12.40L87.36 12.43L87.43 12.51Q89.53 12.97 89.76 15.44L89.68 15.36L89.78 15.46Q88.66 16.10 86.45 17.43L86.41 17.39L86.38 17.35Q86.04 14.42 81.66 14.42L81.58 14.35L81.61 14.38Q79.73 14.40 78.74 15.08L78.88 15.23L78.80 15.14Q77.58 15.59 77.80 17.38L77.82 17.40L77.89 17.46Q78.18 19.70 81.15 21.23L80.98 21.06L80.98 21.05Q81.52 21.29 86.01 22.92L86.14 23.05L86.16 23.07Q88.80 24.57 89.21 28.94L89.15 28.88L89.19 28.92Q89.16 29.05 89.24 30.30L89.13 30.20L89.17 30.23Q89.30 33.06 87.74 34.17L87.64 34.07L87.69 34.12Q85.96 35.21 81.77 35.32ZM83.93 37.55L84.08 37.71L83.96 37.59Q85.40 37.66 87.38 37.66L87.50 37.77L87.38 37.66Q89.46 37.64 90.71 37.22L90.75 37.26L90.85 37.36Q92.01 36.46 91.93 34.67L91.87 34.61L92.01 34.74Q91.87 33.66 91.49 31.60L91.52 31.63L91.56 31.67Q90.54 26.88 88.44 25.01L88.58 25.15L88.58 25.15Q87.83 23.60 86.49 22.87L86.49 22.87L81.07 20.69L81.14 20.75Q80.76 20.53 80.31 20.30L80.31 20.31L80.17 19.90L80.23 19.62L80.22 19.61Q80.09 18.22 81.23 17.61L81.12 17.50L81.13 17.51Q81.86 16.90 83.57 16.71L83.59 16.74L83.71 16.85Q84.80 16.69 85.94 17.15L85.85 17.05L85.89 17.09Q85.93 17.17 86.12 18.00L86.19 18.08L86.11 18.00Q86.37 17.92 86.87 17.69L86.76 17.59L86.93 17.76Q87.57 18.59 87.69 19.73L87.70 19.74L87.64 19.68Q87.86 19.78 91.51 17.19L91.52 17.21L91.35 17.03Q91.19 14.52 89.75 13.83L89.73 13.82L89.69 13.77Q89.21 12.61 87.76 12.08L87.74 12.05L87.64 11.95Q85.48 11.28 82.29 11.28L82.14 11.13L82.23 11.23Q77.34 11.25 75.48 11.94L75.49 11.95L75.36 11.82Q74.09 12.34 73.98 14.01L74.07 14.11L74.00 14.03Q73.86 14.47 74.28 16.68L74.39 16.79L74.45 16.85Q75.05 20.53 77.22 22.78L77.27 22.82L77.29 22.84Q78.00 24.46 79.50 25.15L79.50 25.15L79.53 25.18Q81.03 25.86 84.95 27.42L84.94 27.41L84.97 27.48L85.61 27.81L85.61 27.85L85.62 27.86Q85.84 28.35 85.88 28.69L85.80 28.62L85.89 28.70Q85.87 32.07 81.95 32.23L82.07 32.35L81.92 32.20Q80.72 32.18 79.43 31.80L79.50 31.87L79.50 31.87Q79.16 31.03 79.16 30.31L79.20 30.35L79.26 30.41Q79.12 30.00 79.15 29.73L79.32 29.90L79.17 29.75Q78.88 30.11 78.08 30.60L78.05 30.57L78.06 30.58Q77.53 29.45 77.69 28.08L77.67 28.06L77.59 27.98Q75.50 29.16 73.90 30.57L73.90 30.57L74.02 30.69Q74.09 31.52 74.17 32.55L74.15 32.54L74.20 32.58Q74.42 34.21 75.72 34.98L75.80 35.06L75.74 35.00Q76.93 36.80 79.48 37.18L79.58 37.28L79.59 37.29Q81.09 37.46 84.03 37.65Z"/><path fill="#444" d="M114.04 22.16L114.00 22.11L114.07 22.18Q114.89 22.20 116.30 22.05L116.35 22.10L116.22 21.98Q116.13 22.57 116.13 23.22L116.24 23.33L116.19 24.54L116.21 24.56Q115.38 24.56 114.54 24.64L114.48 24.57L114.48 24.57Q113.66 24.63 112.82 24.59L112.84 24.61L112.89 24.66Q109.98 30.77 106.55 35.37L106.56 35.38L106.50 35.33Q104.18 36.16 102.89 36.77L102.84 36.73L102.71 36.60Q106.90 30.96 109.94 24.68L109.91 24.65L107.33 24.69L107.28 24.64Q107.27 23.30 107.16 21.97L107.13 21.95L107.28 22.09Q109.10 22.16 111.15 22.16L111.21 22.22L113.07 18.48L113.15 18.56Q114.02 16.53 115.23 14.93L115.33 15.03L115.28 14.98Q113.72 15.13 112.12 15.13L112.03 15.04L112.15 15.16Q105.95 15.06 102.19 12.85L102.33 12.99L101.61 11.21L101.65 11.25Q101.35 10.45 100.97 9.58L100.81 9.41L100.90 9.51Q105.17 12.06 110.88 12.29L110.87 12.28L110.93 12.35Q116.13 12.63 121.27 10.65L121.20 10.59L121.13 10.51Q121.01 11.00 120.52 11.88L120.63 11.99L120.56 11.92Q116.97 16.71 114.12 22.23ZM122.16 13.30L122.09 13.23L123.16 11.28L123.12 11.24Q122.24 11.82 120.57 12.54L120.57 12.54L120.70 12.18L120.63 12.11Q120.76 11.97 120.87 11.85L120.84 11.83L120.91 11.90Q121.33 11.25 122.05 9.91L121.98 9.84L121.97 9.84Q116.76 12.23 111.01 12.00L111.02 12.01L111.01 12.00Q104.90 11.65 100.15 8.68L100.06 8.59L100.15 8.69Q101.13 10.50 101.97 13.17L102.08 13.28L102.05 13.25Q103.10 13.84 103.90 14.14L103.83 14.08L103.94 14.19Q104.09 14.52 104.55 16.39L104.51 16.35L104.60 16.44Q107.69 17.63 113.21 17.48L113.20 17.47L113.23 17.50Q112.94 18.08 110.96 21.85L111.01 21.90L110.97 21.87Q108.87 21.82 106.89 21.63L106.82 21.56L106.90 21.64Q107.01 22.51 107.01 23.39L106.99 23.37L106.92 25.01L108.66 25.07L108.71 26.53L108.71 26.54Q104.75 33.88 101.97 37.46L101.87 37.35L101.93 37.42Q103.55 36.68 105.19 36.18L105.14 36.13L105.15 36.14Q104.46 37.05 103.09 38.76L103.09 38.77L103.19 38.86Q106.24 37.65 108.68 37.42L108.74 37.48L108.74 37.49Q111.73 33.78 114.86 27.01L114.83 26.98L118.15 27.06L118.28 27.20Q118.10 26.17 118.10 25.26L118.07 25.23L118.03 23.40L118.20 23.57Q117.81 23.45 117.26 23.49L117.23 23.46L117.34 23.57Q116.70 23.52 116.44 23.52L116.44 23.52L116.57 23.66Q116.49 23.47 116.53 23.31L116.44 23.22L116.44 22.95L116.62 23.14Q119.11 17.98 122.20 13.33Z"/><path fill="#444" d="M142.38 22.21L142.29 22.12L142.31 22.14Q143.11 22.14 144.52 21.99L144.65 22.11L144.51 21.98Q144.60 22.75 144.60 23.40L144.47 23.27L144.56 24.62L144.41 24.47Q143.62 24.51 142.78 24.59L142.84 24.65L142.84 24.64Q141.91 24.59 141.07 24.55L141.10 24.58L141.14 24.62Q138.23 30.74 134.81 35.34L134.89 35.42L134.97 35.51Q132.38 36.08 131.09 36.69L131.02 36.62L131.07 36.67Q135.11 30.89 138.15 24.61L138.19 24.64L135.58 24.66L135.66 24.74Q135.54 23.28 135.42 21.95L135.53 22.06L135.46 21.98Q137.29 22.07 139.35 22.07L139.48 22.20L141.28 18.40L141.27 18.40Q142.40 16.63 143.61 15.03L143.57 14.98L143.59 15.01Q141.98 15.11 140.38 15.11L140.45 15.18L140.44 15.16Q134.35 15.17 130.58 12.96L130.56 12.94L129.93 11.24L129.94 11.25Q129.48 10.29 129.10 9.42L129.20 9.52L129.17 9.49Q133.43 12.04 139.14 12.27L139.13 12.26L139.13 12.26Q144.32 12.54 149.46 10.56L149.52 10.62L149.41 10.51Q149.35 11.05 148.85 11.93L148.80 11.87L148.75 11.82Q145.12 16.58 142.27 22.10ZM150.33 13.17L150.38 13.22L151.32 11.16L151.45 11.29Q150.53 11.82 148.85 12.54L148.71 12.40L148.95 12.14L149.01 12.20Q149.13 12.05 149.24 11.94L149.29 11.98L149.12 11.82Q149.60 11.23 150.33 9.90L150.22 9.80L150.34 9.92Q145.04 12.23 139.29 12.00L139.31 12.02L139.14 11.84Q133.25 11.71 128.49 8.74L128.53 8.78L128.37 8.62Q129.44 10.52 130.28 13.19L130.25 13.16L130.21 13.12Q131.51 13.96 132.31 14.27L132.30 14.26L132.24 14.20Q132.29 14.44 132.75 16.30L132.88 16.43L132.90 16.46Q135.96 17.61 141.48 17.46L141.47 17.45L141.44 17.42Q141.20 18.06 139.22 21.83L139.17 21.78L139.27 21.88Q137.26 21.93 135.28 21.74L135.25 21.70L135.11 21.56Q135.24 22.45 135.24 23.33L135.21 23.30L135.28 25.09L136.89 25.02L136.87 26.40L136.85 26.38Q133.04 33.88 130.26 37.46L130.15 37.35L130.27 37.47Q131.94 36.77 133.57 36.28L133.56 36.27L133.47 36.17Q132.75 37.06 131.38 38.77L131.44 38.83L131.42 38.81Q134.64 37.77 137.08 37.54L137.06 37.52L137.04 37.50Q139.90 33.67 143.03 26.89L143.15 27.01L146.44 27.06L146.59 27.21Q146.35 26.14 146.35 25.23L146.33 25.20L146.43 23.51L146.36 23.45Q146.06 23.41 145.51 23.45L145.59 23.53L145.64 23.59Q145.01 23.54 144.74 23.54L144.71 23.51L144.76 23.56Q144.80 23.49 144.84 23.33L144.84 23.33L144.81 23.04L144.88 23.11Q147.40 17.98 150.48 13.33Z"/><path fill="#444" d="M175.35 35.31L175.35 35.31L175.37 35.33Q172.43 31.47 169.80 22.83L169.93 22.96L169.81 22.84Q169.20 20.75 168.41 18.61L168.41 18.62L165.54 27.40L165.58 27.44Q163.60 32.20 161.20 35.43L161.26 35.49L161.24 35.47Q160.46 35.60 158.82 35.75L158.82 35.75L158.72 35.66Q158.96 34.60 158.96 33.34L158.99 33.38L158.87 33.25Q158.89 27.26 156.15 21.13L156.19 21.17L156.20 21.18Q152.99 14.20 147.13 9.22L147.15 9.24L147.12 9.20Q149.28 9.92 151.64 10.46L151.63 10.44L151.57 10.39Q160.45 19.03 161.74 29.99L161.66 29.91L161.69 29.95Q163.25 26.55 164.69 21.19L164.68 21.17L164.78 21.27Q166.76 13.78 167.26 12.37L167.22 12.33L169.39 12.25L169.49 12.35Q170.24 14.44 170.89 16.76L170.91 16.78L171.98 21.05L171.98 21.05Q173.51 26.46 174.92 29.69L174.98 29.76L175.01 29.79Q176.72 18.21 184.64 10.86L184.54 10.77L184.62 10.84Q186.04 10.40 189.01 9.75L189.09 9.84L189.03 9.77Q183.75 14.13 180.71 20.26L180.64 20.19L180.69 20.24Q177.61 26.49 177.61 33.26L177.69 33.35L177.64 33.29Q177.70 34.46 177.78 35.60L177.70 35.52L176.63 35.48L176.51 35.36Q176.05 35.44 175.48 35.44ZM181.63 38.23L181.76 38.36L181.67 38.28Q180.37 34.65 180.48 30.77L180.61 30.90L180.56 30.84Q180.78 19.19 190.15 10.93L190.20 10.99L190.14 10.92Q189.21 11.17 187.26 11.70L187.38 11.82L187.35 11.79Q188.36 11.01 190.27 9.22L190.29 9.24L190.12 9.07Q187.47 9.86 184.54 10.35L184.68 10.48L184.57 10.38Q177.04 17.47 175.14 26.94L175.23 27.04L175.22 27.03Q174.69 25.43 171.83 13.97L171.78 13.92L171.75 13.89Q171.25 13.89 170.30 13.89L170.40 13.98L170.02 12.84L170.09 12.91Q170.01 12.41 169.78 11.92L169.82 11.96L166.94 11.97L166.77 11.80Q165.98 14.28 164.70 19.40L164.83 19.53L164.66 19.36Q163.45 24.55 162.46 27.02L162.50 27.06L162.47 27.03Q160.98 19.22 155.42 12.90L155.31 12.79L155.42 12.91Q154.93 12.83 153.98 12.64L153.88 12.54L153.87 12.53Q153.28 11.83 151.72 10.19L151.60 10.07L151.60 10.07Q148.32 9.38 146.15 8.58L146.06 8.49L146.08 8.51Q151.66 13.10 154.93 19.30L154.95 19.32L155.03 19.40Q158.39 25.92 158.39 32.93L158.43 32.97L158.41 32.95Q158.48 34.58 158.29 36.17L158.24 36.13L158.35 36.23Q158.53 36.18 158.98 36.09L158.88 35.99L158.94 36.04Q159.37 35.93 159.60 35.93L159.64 35.97L159.59 36.94L159.66 37.01Q159.72 37.53 159.79 38.06L159.71 37.97L159.76 38.03Q160.80 37.84 163.08 37.69L163.07 37.68L163.21 37.82Q166.85 32.44 169.59 23.03L169.56 23.00L169.45 22.89Q172.21 31.67 175.18 35.63L175.30 35.75L175.25 35.70Q175.80 35.79 176.64 35.91L176.58 35.85L176.62 35.89Q177.36 36.82 178.43 37.89L178.44 37.90L178.54 38.00Q179.23 37.96 181.62 38.23Z"/></svg>